<?xml version="1.0" encoding="UTF-8" standalone="no"?>
<!-- Created with Inkscape (http://www.inkscape.org/) -->

<svg
   xmlns:dc="http://purl.org/dc/elements/1.1/"
   xmlns:cc="http://creativecommons.org/ns#"
   xmlns:rdf="http://www.w3.org/1999/02/22-rdf-syntax-ns#"
   xmlns:svg="http://www.w3.org/2000/svg"
   xmlns="http://www.w3.org/2000/svg"
   xmlns:sodipodi="http://sodipodi.sourceforge.net/DTD/sodipodi-0.dtd"
   xmlns:inkscape="http://www.inkscape.org/namespaces/inkscape"
   version="1.1"
   id="svg10"
   width="257.14944"
   height="439.41638"
   viewBox="0 0 257.14944 439.41638"
   sodipodi:docname="AvatarSelf.svg"
   inkscape:version="0.92.4 (5da689c313, 2019-01-14)">
  <metadata
     id="metadata16">
    <rdf:RDF>
      <cc:Work
         rdf:about="">
        <dc:format>image/svg+xml</dc:format>
        <dc:type
           rdf:resource="http://purl.org/dc/dcmitype/StillImage" />
        <dc:title></dc:title>
      </cc:Work>
    </rdf:RDF>
  </metadata>
  <defs
     id="defs14" />
  <sodipodi:namedview
     pagecolor="#ffffff"
     bordercolor="#666666"
     borderopacity="1"
     objecttolerance="10"
     gridtolerance="10"
     guidetolerance="10"
     inkscape:pageopacity="0"
     inkscape:pageshadow="2"
     inkscape:window-width="1920"
     inkscape:window-height="1001"
     id="namedview12"
     showgrid="false"
     inkscape:showpageshadow="true"
     showborder="false"
     inkscape:snap-grids="false"
     inkscape:snap-nodes="false"
     inkscape:snap-global="false"
     showguides="false"
     inkscape:zoom="1.1974863"
     inkscape:cx="-8.6471296"
     inkscape:cy="228.42065"
     inkscape:window-x="-9"
     inkscape:window-y="-9"
     inkscape:window-maximized="1"
     inkscape:current-layer="layer2"
     fit-margin-top="0"
     fit-margin-left="0"
     fit-margin-right="0"
     fit-margin-bottom="0"
     inkscape:pagecheckerboard="true" />
  <g
     inkscape:groupmode="layer"
     id="layer2"
     inkscape:label="Face"
     style="display:inline;opacity:1"
     sodipodi:insensitive="true"
     transform="translate(-73.494848,84.3862)">
    <g
       style="display:inline"
       id="g4618">
      <path
         id="rect4609"
         style="display:inline;opacity:1;fill:#b48e7a;fill-opacity:1;stroke:none;stroke-opacity:0"
         d="m 105.35892,191.86827 c 0,0 51.62441,106.6109 97.58636,103.42892 45.96194,-6.01041 98.98932,-131.35965 98.98932,-131.35965 0,0 -38.53733,56.92211 -43.13352,166.87722 l -50.9111,24.21543 -54.09425,-23.86188 C 148.84599,224.39519 105.35892,191.86827 105.35892,191.86827 Z"
         inkscape:connector-curvature="0" />
    </g>
    <path
       style="opacity:1;fill:#a9765b;fill-opacity:1;stroke:none;stroke-opacity:0"
       d="M 314.65887,123.89383 C 328.84852,226.54226 268.17542,293.50908 200.77941,296.16606 138.35146,298.62719 83.246249,220.06267 89.099084,119.83559 94.449135,28.21846 103.6829,-24.220077 171.86584,-22.738162 c 32.48194,0.705976 80.708,-14.138034 108.48129,7.549869 10.75236,8.3964176 20.70216,30.350132 25.5781,49.577887 5.00867,19.751166 4.79296,60.99729 8.73364,89.504236 z"
       id="path4567"
       inkscape:connector-curvature="0"
       sodipodi:nodetypes="sssssss" />
    <path
       style="opacity:1;fill:#b3846a;fill-opacity:0.98823529;stroke:none;stroke-width:1.23799336;stroke-opacity:0"
       d="m 314.42696,97.788991 c 2.49806,-2.762172 11.15866,-5.432329 12.86005,-1.949039 4.44204,9.094298 3.28436,19.508588 3.04181,28.504738 -0.89859,33.32716 -9.44688,34.26997 -9.56868,42.24581 -0.0583,3.82643 2.56274,16.27831 -8.23412,19.7547 l 2.13935,-43.83679 z"
       id="path4602"
       inkscape:connector-curvature="0"
       sodipodi:nodetypes="csssccc" />
    <path
       sodipodi:nodetypes="csssccc"
       inkscape:connector-curvature="0"
       id="path4605"
       d="M 89.556356,92.692797 C 87.082297,89.930625 78.504907,87.260468 76.819864,90.743758 72.420502,99.83806 73.56706,110.25235 73.807279,119.2485 c 0.889957,33.32716 9.356116,34.26997 9.476745,42.24581 0.05774,3.82643 -0.593573,16.45509 10.099552,19.93148 l -4.063339,-44.01357 z"
       style="opacity:1;fill:#b3846b;fill-opacity:0.98557691;stroke:none;stroke-width:1.2320317;stroke-opacity:0" />
    <rect
       style="opacity:1;fill:#b3856d;fill-opacity:1;stroke:none;stroke-opacity:0"
       id="rect4613"
       width="2.75"
       height="25.25"
       x="252.3024"
       y="-143.9606"
       transform="rotate(23.733972)" />
    <path
       id="path4580"
       style="display:inline;opacity:1;fill:#000000;fill-opacity:1;stroke:none;stroke-width:0.78967088;stroke-opacity:0"
       d="m 110.2944,31.168598 c -4.30351,1.136028 -9.51703,19.997008 -14.289134,23.690684 -0.738831,0.571859 -2.315304,11.848517 -4.486401,32.177772 -2.191344,20.518926 -1.978488,44.087226 -2.979852,43.723566 -1.104684,-0.40118 -1.111058,-21.35837 -2.090196,-41.423328 -0.249767,-5.118376 -2.514712,-14.141318 -2.859094,-18.91151 -0.906326,-12.553964 -0.03417,-13.927095 -0.422105,-14.532585 -5.750911,-8.976042 4.15568,-54.8819624 23.313372,-86.415461 10.04717,-16.537611 25.97102,-28.117394 40.95589,-23.130357 l -13.80777,32.272515 z m 180.8613,-60.433239 c 3.78998,3.716701 12.11094,8.94398 24.44965,39.1999185 6.43044,15.7682005 5.76903,26.4703875 5.93579,36.0451585 0.33365,19.156067 -5.02597,34.550078 -6.70291,82.227104 0,0 -2.8162,-35.53069 -8.15503,-71.433236 C 292.89461,46.874806 282.59713,-9.6299411 282.59713,-9.6299411 Z M 125.09098,11.693754 c -9.08921,-34.424748 -3.83091,-99.357849 74.78576,-95.951003 58.52758,2.536288 93.29993,23.020607 89.9683,54.285501 l -8.35966,19.017816 c 0,0 -8.60951,-18.148716 -72.24911,-9.663435 -78.48885,7.071068 -84.14529,32.311121 -84.14529,32.311121 z"
       inkscape:connector-curvature="0" />
  </g>
  <g
     inkscape:groupmode="layer"
     id="layer5"
     inkscape:label="Left eyebrow"
     style="opacity:1"
     sodipodi:insensitive="true"
     transform="translate(-73.494848,84.3862)">
    <path
       style="opacity:1;fill:#000000;fill-opacity:0.58937198;stroke:none;stroke-opacity:0"
       d="m 182.48166,87.564799 -7.20701,-20.37869 -16.64141,-3.638292 c -24.79931,-5.095749 -35.79834,0.953382 -35.79834,0.953382 0.002,-0.0039 -12.30082,4.981836 -16.37742,12.795318 0,0 11.75195,2.872045 24.66118,0.154312 17.3606,3.514412 32.71542,6.585109 51.363,10.11397 z"
       id="path4665"
       inkscape:connector-curvature="0"
       sodipodi:nodetypes="ccccccc" />
  </g>
  <g
     inkscape:groupmode="layer"
     id="layer6"
     inkscape:label="Right eyebrow"
     sodipodi:insensitive="true"
     style="display:inline"
     transform="translate(-73.494848,84.3862)">
    <path
       sodipodi:nodetypes="ccccccc"
       inkscape:connector-curvature="0"
       id="path4668"
       d="m 222.98028,88.244234 c 0,0 -0.60647,-12.904926 5.16871,-21.397841 12.90923,-4.756033 23.43575,-2.958859 23.43575,-2.958859 15.62696,0.339717 33.42032,5.369698 33.42032,5.369698 4.75403,1.694683 16.37742,12.115888 16.37742,12.115888 -10.97019,8.205409 -30.40868,-7.7238 -49.12077,2.19261 -14.60781,4.756033 -29.28143,4.678504 -29.28143,4.678504 z"
       style="opacity:1;fill:#000000;fill-opacity:0.58937198;stroke:none;stroke-opacity:0" />
  </g>
  <g
     inkscape:groupmode="layer"
     id="layer7"
     inkscape:label="Eyes"
     style="display:inline"
     sodipodi:insensitive="true"
     transform="translate(-73.494848,84.3862)">
    <path
       style="opacity:1;fill:#e6e6e6;fill-opacity:0.58937198;stroke:#000000;stroke-width:1.32655454;stroke-opacity:0.44497609"
       d="m 172.144,111.95313 c 0,-9.49195 -8.06147,-12.537791 -16.40666,-17.211424 -10.55486,-4.886551 -31.57891,2.00611 -31.59113,11.377214 0,0 -0.009,6.32379 12.20415,8.6085 0,0 9.9158,4.40626 35.79364,-2.77429 z"
       id="path4670"
       inkscape:connector-curvature="0"
       sodipodi:nodetypes="ccccc" />
    <path
       sodipodi:nodetypes="cssccc"
       inkscape:connector-curvature="0"
       id="path4684"
       d="m 159.36292,96.44588 c 1.87894,4.51492 1.30003,11.41885 -2.72901,14.62004 -6.26489,4.97763 -14.22877,3.92012 -18.27661,0.16679 -3.27155,-3.03353 -4.91283,-7.8822 -3.95966,-15.630708 0,0 5.5117,-2.3872 12.86525,-2.617991 0,0 5.08849,-0.57698 12.10003,3.461869 z"
       style="opacity:1;fill:#311c0e;fill-opacity:1;stroke:none;stroke-width:0.84855127;stroke-opacity:0" />
    <circle
       style="opacity:1;fill:#000000;fill-opacity:1;stroke:none;stroke-width:2.80000019;stroke-miterlimit:4;stroke-dasharray:none;stroke-opacity:1"
       id="path4780"
       cx="147.23149"
       cy="99.062645"
       r="5.16681" />
    <path
       sodipodi:nodetypes="ccccc"
       inkscape:connector-curvature="0"
       id="path4808"
       d="m 233.33326,111.95313 c 0,-9.49195 8.06147,-12.537791 16.40666,-17.211424 10.55486,-4.886551 31.57891,2.00611 31.59113,11.377214 0,0 0.009,6.32379 -12.20415,8.6085 0,0 -9.9158,4.40626 -35.79364,-2.77429 z"
       style="opacity:1;fill:#e6e6e6;fill-opacity:0.58937198;stroke:#000000;stroke-width:1.32655454;stroke-opacity:0.44497609" />
    <path
       style="opacity:1;fill:#311c0e;fill-opacity:1;stroke:none;stroke-width:0.84855127;stroke-opacity:0"
       d="m 246.11434,96.44588 c -1.87894,4.51492 -1.30003,11.41885 2.72901,14.62004 6.26489,4.97763 14.22877,3.92012 18.27661,0.16679 3.27155,-3.03353 4.91283,-7.8822 3.95966,-15.630708 0,0 -5.5117,-2.3872 -12.86525,-2.617991 0,0 -5.08849,-0.57698 -12.10003,3.461869 z"
       id="path4810"
       inkscape:connector-curvature="0"
       sodipodi:nodetypes="cssccc" />
    <circle
       r="5.16681"
       cy="99.062645"
       cx="-258.24576"
       id="circle4812"
       style="opacity:1;fill:#000000;fill-opacity:1;stroke:none;stroke-width:2.80000019;stroke-miterlimit:4;stroke-dasharray:none;stroke-opacity:1"
       transform="scale(-1,1)" />
  </g>
  <g
     inkscape:groupmode="layer"
     id="layer8"
     inkscape:label="Nose"
     sodipodi:insensitive="true"
     style="display:inline"
     transform="translate(-73.494848,84.3862)">
    <path
       style="opacity:1;fill:#6f3f21;fill-opacity:1;stroke:none;stroke-opacity:0.44497609"
       id="path4701"
       d="m 176.39288,146.69545 c -0.97332,2.34254 -2.03413,4.64529 -3.15114,6.92229 -1.32348,2.54061 -2.43174,5.16711 -3.32746,7.88587 -0.63904,2.25551 -1.16388,4.60345 -0.99451,6.9645 0.0328,0.45775 0.11724,0.91035 0.17586,1.36552 0.43071,2.10102 1.23155,4.22477 2.75184,5.79413 0.25523,0.26346 0.55345,0.48158 0.83018,0.72238 0.98129,0.65355 2.68771,2.7938 3.82384,2.84451 l -4.98028,0.82369 v 0 c -1.19,-0.15814 -2.0253,-0.33388 -3.01993,-1.07807 -0.28631,-0.26498 -0.59393,-0.50863 -0.85891,-0.79493 -1.54266,-1.66677 -2.38937,-3.85553 -2.85767,-6.04259 -0.17686,-1.28005 -0.26708,-1.56791 -0.2423,-2.87199 0.0365,-1.92011 0.46813,-3.81323 0.97135,-5.65632 0.87781,-2.74296 1.95191,-5.40104 3.30111,-7.95019 1.09808,-2.23018 2.17492,-4.47678 3.01643,-6.81913 z"
       inkscape:connector-curvature="0"
       sodipodi:nodetypes="cccccccccccccccccc" />
    <path
       inkscape:connector-curvature="0"
       d="m 225.12196,147.03517 c 0.97332,2.34254 2.03413,4.64529 3.15114,6.92229 1.32348,2.54061 2.43174,5.16711 3.32746,7.88587 0.63904,2.25551 1.16388,4.60345 0.99451,6.9645 -0.0328,0.45775 -0.11724,0.91035 -0.17586,1.36552 -0.43071,2.10102 -1.23155,4.22477 -2.75184,5.79413 -0.25523,0.26346 -0.55345,0.48158 -0.83018,0.72238 -0.98129,0.65355 -4.84966,4.11498 -5.98579,4.16569 l 7.14223,-0.49749 v 0 c 1.19,-0.15814 2.0253,-0.33388 3.01993,-1.07807 0.28631,-0.26498 0.59393,-0.50863 0.85891,-0.79493 1.54266,-1.66677 2.38937,-3.85553 2.85767,-6.04259 0.17686,-1.28005 0.26708,-1.56791 0.2423,-2.87199 -0.0365,-1.92011 -0.46813,-3.81323 -0.97135,-5.65632 -0.87781,-2.74296 -1.95191,-5.40104 -3.30111,-7.95019 -1.09808,-2.23018 -2.17492,-4.47678 -3.01643,-6.81913 z"
       id="path4703"
       style="opacity:1;fill:#6f3f21;fill-opacity:1;stroke:none;stroke-opacity:0.44497609"
       sodipodi:nodetypes="cccccccccccccccccc" />
    <path
       style="opacity:0.75700001;fill:#6f3f21;fill-opacity:1;stroke:none;stroke-opacity:0.44497609"
       d="m 186.60455,174.68442 c -1.08254,-3.14723 -3.25756,-3.16203 -4.96635,-3.64804 -1.70879,-0.48602 -4.47047,-0.60363 -5.58025,0.79102 -1.10977,1.3947 -1.41508,3.91609 0.89943,6.11526 3.03816,-0.17254 1.10542,-2.52697 9.64717,-3.25824 z"
       id="path4705"
       inkscape:connector-curvature="0"
       sodipodi:nodetypes="ccccc" />
    <path
       sodipodi:nodetypes="ccccc"
       inkscape:connector-curvature="0"
       id="path4746"
       d="m 212.62737,175.40507 c 1.08254,-3.14723 3.25756,-3.16203 4.96635,-3.64804 1.70879,-0.48602 4.47047,-0.60363 5.58025,0.79102 1.10977,1.3947 1.41508,3.91609 -0.89943,6.11526 -3.03816,-0.17254 -1.10542,-2.52697 -9.64717,-3.25824 z"
       style="opacity:0.75700001;fill:#6f3f21;fill-opacity:1;stroke:none;stroke-opacity:0.44497609" />
    <path
       style="fill:none;fill-opacity:1;stroke:#6f3f21;stroke-width:1.70000005;stroke-linecap:butt;stroke-linejoin:miter;stroke-miterlimit:4;stroke-dasharray:none;stroke-opacity:1"
       d="m 184.36548,172.87402 c 13.82951,13.0621 30.71588,1.19518 30.71588,1.19518"
       id="path4768"
       inkscape:connector-curvature="0"
       sodipodi:nodetypes="cc" />
  </g>
  <g
     inkscape:groupmode="layer"
     id="layer9"
     inkscape:label="Mouth"
     style="display:inline;opacity:1"
     sodipodi:insensitive="true"
     transform="translate(-73.494848,84.3862)">
    <path
       style="opacity:1;fill:#c47e6d;fill-opacity:0.9372549;stroke:none;stroke-width:1.70000005;stroke-miterlimit:4;stroke-dasharray:none;stroke-opacity:1"
       d="m 243.58867,219.34913 c -11.82949,14.3404 -23.3412,24.12406 -43.77774,24.14554 -28.12357,-0.69183 -30.64815,-10.46447 -47.60406,-26.42104 l 22.32097,1.91597 24.74548,3.87716 20.1439,-1.56204 z"
       id="path4815"
       inkscape:connector-curvature="0"
       sodipodi:nodetypes="ccccccc" />
    <path
       sodipodi:nodetypes="ccccccc"
       inkscape:connector-curvature="0"
       id="path4820"
       d="m 243.06675,219.62752 c -27.47754,-11.38794 -38.69401,-5.67117 -43.92537,-4.51166 -3.02763,1.13469 -9.98091,-10.20278 -46.12783,2.06321 l 21.28761,2.66035 23.85974,3.79925 23.53924,-1.2428 z"
       style="opacity:1;fill:#864636;fill-opacity:0.9372549;stroke:none;stroke-width:1.70000005;stroke-miterlimit:4;stroke-dasharray:none;stroke-opacity:1" />
  </g>
</svg>
