<?xml version="1.0" encoding="UTF-8" standalone="no"?>
<svg
   xmlns:dc="http://purl.org/dc/elements/1.1/"
   xmlns:cc="http://creativecommons.org/ns#"
   xmlns:rdf="http://www.w3.org/1999/02/22-rdf-syntax-ns#"
   xmlns:svg="http://www.w3.org/2000/svg"
   xmlns="http://www.w3.org/2000/svg"
   xmlns:xlink="http://www.w3.org/1999/xlink"
   id="svg8"
   version="1.1"
   viewBox="0 0 79.374998 79.375002"
   height="300"
   width="300">
  <defs
     id="defs2">
    <linearGradient
       id="linearGradient858">
      <stop
         id="stop854"
         offset="0"
         style="stop-color:#bf5550;stop-opacity:1;" />
      <stop
         id="stop856"
         offset="1"
         style="stop-color:#ed8549;stop-opacity:1" />
    </linearGradient>
    <linearGradient
       gradientUnits="userSpaceOnUse"
       y2="316.72305"
       x2="335.94907"
       y1="107.1164"
       x1="117.19603"
       id="linearGradient860"
       xlink:href="#linearGradient858" />
  </defs>
  <metadata
     id="metadata5">
    <rdf:RDF>
      <cc:Work
         rdf:about="">
        <dc:format>image/svg+xml</dc:format>
        <dc:type
           rdf:resource="http://purl.org/dc/dcmitype/StillImage" />
        <dc:title></dc:title>
      </cc:Work>
    </rdf:RDF>
  </metadata>
  <g
     style="opacity:1"
     transform="translate(0,-217.62498)"
     id="layer1" />
  <g
     id="layer2">
    <path
       transform="scale(0.26458333)"
       id="path852"
       d="m 253.03029,161.0319 -43.21033,-42.53054 3.96841,-0.66286 c 11.25492,-1.87994 19.90767,-7.37568 23.40171,-14.86344 6.08273,-13.035372 -2.87868,-26.534389 -21.51724,-32.412497 -8.17703,-2.578818 -12.14424,-3.071283 -24.93763,-3.095612 -6.52811,-0.01242 -13.61597,0.156033 -15.75079,0.374327 l -3.8815,0.396894 -2.13758,-3.67989 c -3.33614,-5.743251 -7.82738,-12.329857 -11.98018,-17.569487 -7.4963,-9.458172 -22.11263,-23.11469 -34.59673,-32.324882 l -4.44999,-3.282995 11.77592,-0.31141 c 6.47675,-0.171276 31.0019,-0.341739 54.50033,-0.378807 41.04523,-0.06475 42.87807,-0.0281 46.63378,0.932447 12.56065,3.212473 27.17056,11.992118 39.09949,23.496355 13.69001,13.202623 21.0633,25.905912 24.62527,42.426406 1.22032,5.659835 1.23716,19.054397 0.0318,25.253811 -2.64039,13.57967 -7.4838,25.03382 -16.29775,38.54243 l -4.0993,6.28276 3.50627,4.35645 c 8.88237,11.03612 14.87345,23.60605 17.5569,36.83633 1.10371,5.44163 1.94033,14.74475 1.32598,14.74475 -0.19606,0 -19.80113,-19.13874 -43.56681,-42.53054 z"
       style="opacity:1;fill:url(#linearGradient860);fill-opacity:1;fill-rule:nonzero;stroke:none;stroke-width:0.50587165;stroke-miterlimit:4;stroke-dasharray:none;stroke-opacity:1" />
    <path
       transform="scale(0.26458333)"
       id="path862"
       d="m 120.72185,283.78035 c 0.2639,-0.24739 2.75267,-2.15695 5.53059,-4.24347 17.2068,-12.92422 32.43935,-29.00055 41.35522,-43.64605 1.55702,-2.55761 3.33814,-5.69416 3.95804,-6.97011 1.08149,-2.22603 1.19917,-2.30838 2.9082,-2.03514 8.85279,1.41545 23.04573,1.65789 31.46338,0.53746 7.24538,-0.96439 12.27678,-2.40105 17.93541,-5.12125 5.78484,-2.78086 10.50992,-7.13663 12.61368,-11.62775 1.22379,-2.61256 1.38792,-3.56026 1.38792,-8.01372 0,-4.90382 -0.0573,-5.15801 -1.96935,-8.73684 -3.29543,-6.16811 -10.03784,-11.42434 -18.30154,-14.26747 -5.19696,-1.78802 -11.21753,-2.63706 -19.12506,-2.69708 l -7.57614,-0.0575 -0.13033,-29.73289 -0.13033,-29.73289 1.39302,0.31879 c 0.76616,0.17534 4.62435,0.46257 8.57376,0.6383 l 7.18074,0.31951 44.517,43.73289 44.51701,43.7329 -0.33876,3.54444 c -2.62479,27.46309 -21.08421,51.21514 -52.39494,67.41746 -3.69609,1.9126 -8.69603,4.29033 -11.11098,5.28383 l -4.39083,1.80637 H 174.4148 c -31.69842,0 -53.97371,-0.1866 -53.69295,-0.44979 z"
       style="opacity:1;fill:#ed8549;fill-opacity:1;fill-rule:nonzero;stroke:none;stroke-width:0.50587165;stroke-miterlimit:4;stroke-dasharray:none;stroke-opacity:1" />
    <path
       transform="scale(0.26458333)"
       id="path4605"
       d="m 120.19006,206.79652 -21.102805,-21.1073 2.267495,-4.78673 c 2.73975,-5.78366 4.9604,-12.43303 6.45661,-19.33319 1.52754,-7.04469 1.6482,-23.09708 0.22272,-29.62998 C 103.4097,110.74613 91.791322,94.689913 73.115511,83.683018 57.357752,74.395928 36.071514,69.317154 12.881746,69.311593 l -7.197337,-0.0017 V 39.936182 10.562498 l 11.490485,0.315513 c 25.005468,0.686616 45.501837,4.675243 65.725146,12.79022 31.81497,12.766348 56.38764,35.181565 70.79799,64.581995 9.22576,18.822694 13.61079,37.931484 13.61079,59.312254 0,22.46443 -4.96454,43.17033 -15.08508,62.9162 -3.07924,6.00782 -10.06832,17.41279 -10.67607,17.42149 -0.14013,0.002 -9.75106,-9.49464 -21.35761,-21.10365 z"
       style="opacity:0.75666665;fill:#f37454;fill-opacity:1;fill-rule:nonzero;stroke:none;stroke-width:0.05050763;stroke-miterlimit:4;stroke-dasharray:none;stroke-opacity:1" />
    <path
       transform="scale(0.26458333)"
       id="path4607"
       d="M 10.103826,284.60137 5.684409,284.43303 V 255.10352 225.774 l 1.1364216,0.28122 c 5.1776014,1.28126 18.0134574,1.98227 25.2832454,1.3808 16.034621,-1.32662 29.141678,-5.78978 41.729184,-14.20942 7.606549,-5.08794 17.62157,-15.34618 22.160256,-22.69843 0.600203,-0.97227 1.317386,-2.10869 1.593748,-2.52538 0.403056,-0.60772 4.694726,3.43186 21.691686,20.41754 l 21.18922,21.17516 -2.36331,3.05268 c -3.80879,4.91982 -14.57817,15.75314 -20.04098,20.15999 -23.642348,19.07227 -52.604492,29.59723 -87.125657,31.66183 -8.010298,0.47907 -11.181622,0.49906 -20.834397,0.13138 z"
       style="opacity:0.75666665;fill:#f37752;fill-opacity:1;fill-rule:nonzero;stroke:none;stroke-width:0.05050763;stroke-miterlimit:4;stroke-dasharray:none;stroke-opacity:1" />
    <path
       transform="scale(0.26458333)"
       id="path4609"
       d="m 120.55897,206.64603 -20.963948,-20.97299 2.572508,-5.9882 c 1.41488,-3.29352 3.45559,-8.86627 4.53491,-12.38389 1.86355,-6.07348 1.96367,-7.13336 1.9874,-21.03854 0.0242,-14.18794 -0.0376,-14.83149 -1.99094,-20.71429 C 102.25926,112.17714 96.23855,102.57709 86.710215,93.676079 70.426117,78.464103 47.693462,70.427549 17.853929,69.333688 L 6.246786,68.908192 V 39.741822 10.575451 l 3.0357143,0.319356 c 1.6696427,0.175646 7.8571427,0.489535 13.7499997,0.69753 36.153015,1.276067 70.67365,13.17511 95,32.745899 7.86967,6.331226 19.04596,18.144578 24.8234,26.238361 12.34506,17.294554 21.16021,40.716723 23.37731,62.114383 3.37088,32.53279 -4.55793,64.85836 -22.46055,91.57116 l -2.24974,3.35688 z"
       style="opacity:0.75666665;fill:#f37752;fill-opacity:1;fill-rule:nonzero;stroke:none;stroke-width:0.07142857;stroke-miterlimit:4;stroke-dasharray:none;stroke-opacity:1" />
    <path
       transform="scale(0.26458333)"
       id="path4611"
       d="m 120.25221,206.33929 -20.628195,-20.6374 2.555925,-5.96974 c 5.03621,-11.76283 6.31154,-17.56761 6.73256,-30.64394 0.43551,-13.5261 -0.52483,-20.13257 -4.2525,-29.25437 C 97.428593,102.1382 84.655572,88.807958 66.603929,80.117587 52.665105,73.407196 37.353316,70.016333 17.853929,69.321685 L 6.246786,68.908192 V 39.714548 10.520905 l 1.6071429,0.326906 c 0.8839285,0.179798 6.7500001,0.521987 13.0357141,0.76042 40.698885,1.543809 75.405986,13.951448 100.932567,36.082961 47.80272,41.444909 58.96605,111.977158 26.68021,168.571218 -4.34758,7.62091 -6.40621,10.71428 -7.13032,10.71428 -0.27043,0 -9.77439,-9.28682 -21.11989,-20.6374 z"
       style="opacity:0.75666665;fill:#f37752;fill-opacity:1;fill-rule:nonzero;stroke:none;stroke-width:0.07142857;stroke-miterlimit:4;stroke-dasharray:none;stroke-opacity:1" />
    <path
       transform="scale(0.26458333)"
       id="path4613"
       d="m 120.23774,206.32482 -20.642675,-20.65188 2.572485,-5.98815 c 1.41486,-3.29349 3.43436,-8.86622 4.48776,-12.38384 1.79464,-5.99288 1.91912,-7.31788 1.97645,-21.03854 0.0596,-14.2494 0.007,-14.806 -1.96062,-20.71429 C 99.711993,104.64984 85.847329,89.080829 65.904407,79.770057 51.495538,73.042972 32.217603,69.119551 13.572592,69.119551 H 6.246786 V 39.825395 10.53124 l 2.6785714,0.337115 c 1.4732146,0.185414 7.1723776,0.522521 12.6648056,0.749127 33.443417,1.379806 63.230366,10.277197 86.835877,25.937966 56.09827,37.217664 74.69055,111.626542 43.19192,172.860052 -4.3768,8.50852 -9.32625,16.56119 -10.17907,16.56119 -0.30717,0 -9.84768,-9.29334 -21.20115,-20.65187 z"
       style="opacity:0.75666665;fill:#f37752;fill-opacity:1;fill-rule:nonzero;stroke:none;stroke-width:0.07142857;stroke-miterlimit:4;stroke-dasharray:none;stroke-opacity:1" />
    <path
       transform="scale(0.26458333)"
       id="path4615"
       d="m 120.27923,206.36633 -20.601172,-20.61036 3.254822,-8.13964 c 5.06453,-12.66536 5.65502,-16.00425 5.67126,-32.06821 0.014,-13.81961 -0.004,-13.98165 -2.28375,-20.71428 C 94.596136,90.210979 64.158282,71.195335 17.496786,69.342472 l -11.25,-0.446721 V 39.697334 10.498918 l 3.3928571,0.360054 c 1.8660719,0.198029 7.7321429,0.552546 13.0357139,0.787814 38.095638,1.689936 71.045215,13.223178 96.555473,33.797021 6.46454,5.21361 16.25708,15.448085 21.57754,22.551326 29.80254,39.788807 34.4451,94.944237 11.8084,140.288607 -5.00461,10.02493 -10.18786,18.69295 -11.17788,18.69295 -0.30717,0 -9.82901,-9.27466 -21.15966,-20.61036 z"
       style="opacity:0.75666665;fill:#f37752;fill-opacity:1;fill-rule:nonzero;stroke:none;stroke-width:0.07142857;stroke-miterlimit:4;stroke-dasharray:none;stroke-opacity:1" />
    <path
       transform="scale(0.26458333)"
       id="path4617"
       d="m 120.24651,206.33359 -20.633902,-20.6431 3.231092,-8.1069 c 4.95061,-12.42125 5.69542,-16.62783 5.67209,-32.03547 -0.0221,-14.5922 -0.5403,-17.58168 -4.71934,-27.22513 C 93.374186,94.272815 72.066288,78.31054 42.437942,72.357819 33.259715,70.513794 20.065491,69.139216 11.425357,69.12692 L 6.246786,69.11952 V 39.798368 10.477184 l 4.107143,0.372398 c 2.258928,0.204818 8.125,0.560624 13.035714,0.79068 61.347822,2.873999 108.822737,31.538102 131.063927,79.132946 15.01614,32.133662 16.54565,70.551452 4.14292,104.060632 -4.06488,10.9823 -15.3619,32.14285 -17.16018,32.14285 -0.30575,0 -9.84116,-9.2894 -21.1898,-20.6431 z"
       style="opacity:0.75666665;fill:#f37752;fill-opacity:1;fill-rule:nonzero;stroke:none;stroke-width:0.07142857;stroke-miterlimit:4;stroke-dasharray:none;stroke-opacity:1" />
    <path
       transform="scale(0.26458333)"
       id="path4619"
       d="m 120.26146,206.34855 -20.618938,-20.62813 2.884318,-7.40758 c 5.48758,-14.09334 5.50566,-14.19975 5.50566,-32.40757 0,-15.42173 -0.10229,-16.71206 -1.66906,-21.05411 C 99.183415,104.95277 86.750465,90.678122 68.509051,81.389365 54.128158,74.066433 38.462845,70.459577 16.425357,69.397368 L 6.246786,68.90676 V 39.666499 10.426237 l 5.178571,0.39975 c 2.848215,0.219863 8.875,0.587211 13.392858,0.81633 59.896671,3.037606 107.302075,31.827888 129.336395,78.548662 14.85735,31.503021 16.90558,69.030061 5.55239,101.729551 -3.97178,11.43952 -16.28116,35.05616 -18.27185,35.05616 -0.30511,0 -9.83327,-9.28266 -21.17369,-20.62814 z"
       style="opacity:0.75666665;fill:#f37752;fill-opacity:1;fill-rule:nonzero;stroke:none;stroke-width:0.07142857;stroke-miterlimit:4;stroke-dasharray:none;stroke-opacity:1" />
    <path
       transform="scale(0.26458333)"
       id="path4621"
       d="m 120.23171,206.31879 -20.650988,-20.66021 2.906678,-7.38579 c 5.49654,-13.96656 5.53445,-14.1856 5.54005,-32.01038 0.005,-15.04764 -0.10306,-16.38994 -1.69216,-21.07143 C 96.546572,96.353322 72.919719,77.731099 38.389643,71.63754 35.050357,71.048252 26.452143,70.172853 19.2825,69.692207 L 6.246786,68.818307 V 39.683214 c 0,-16.523693 0.2748869,-29.135092 0.6350489,-29.135092 4.3984411,0 27.9367751,1.734405 33.6749911,2.481317 18.165858,2.36455 36.03811,7.663851 51.761389,15.347765 16.165875,7.900208 26.692015,15.561288 38.759035,28.209391 33.7053,35.328363 44.64638,86.926815 28.66918,135.204685 -3.52418,10.64891 -15.74672,34.1965 -18.14597,34.95947 -0.39476,0.12554 -10.0107,-9.06884 -21.36875,-20.43196 z"
       style="opacity:0.75666665;fill:#f37752;fill-opacity:1;fill-rule:nonzero;stroke:none;stroke-width:0.07142857;stroke-miterlimit:4;stroke-dasharray:none;stroke-opacity:1" />
    <path
       transform="scale(0.26458333)"
       id="path4623"
       d="m 120.22795,206.31502 -20.654771,-20.66398 3.251291,-8.44432 c 4.99987,-12.98578 5.21274,-14.30376 5.17096,-32.01574 -0.0364,-15.45689 -0.0701,-15.80204 -2.05351,-21.07143 C 98.288508,103.78647 85.730929,89.875701 66.603929,80.542523 53.702275,74.247057 39.618863,71.041641 18.925357,69.690772 L 6.246786,68.863118 V 39.70562 c 0,-25.144325 0.1441621,-29.157498 1.0474025,-29.157498 0.5760714,0 6.7635715,0.339389 13.7499995,0.754197 29.074544,1.726255 49.587976,6.567423 70.559741,16.652093 15.921881,7.656334 27.377061,15.953689 39.348291,28.50123 18.07105,18.941009 29.27504,41.371159 34.33372,68.735338 0.581,3.14286 1.23094,11.33929 1.4443,18.21429 0.57251,18.44767 -1.71705,33.46224 -7.69443,50.45896 -3.64567,10.36647 -15.20984,32.1788 -17.43535,32.88652 -0.39476,0.12554 -10.01239,-9.07053 -21.37251,-20.43573 z"
       style="opacity:0.75666665;fill:#f37752;fill-opacity:1;fill-rule:nonzero;stroke:none;stroke-width:0.07142857;stroke-miterlimit:4;stroke-dasharray:none;stroke-opacity:1" />
    <path
       transform="scale(0.26458333)"
       id="path4625"
       d="m 10.711072,284.30498 -4.464286,-0.25359 v -28.9778 -28.9778 l 1.6071429,0.48497 c 0.8839285,0.26673 6.7820371,0.66921 13.1069081,0.89439 21.066761,0.75003 36.66496,-3.37684 52.705715,-13.94454 6.062691,-3.99412 16.075398,-13.81636 20.700334,-20.30656 l 3.43765,-4.82408 1.899693,1.3843 c 1.044831,0.76137 10.561181,10.06912 21.147441,20.6839 17.82852,17.87656 19.16886,19.39421 18.17793,20.58264 -17.10876,20.51866 -33.75831,32.9285 -56.354242,42.00398 -15.191168,6.10142 -32.111087,9.73173 -51.539678,11.05828 -10.069348,0.68752 -11.468633,0.70067 -20.424608,0.19191 z"
       style="opacity:0.75666665;fill:#f89d42;fill-opacity:1;fill-rule:nonzero;stroke:none;stroke-width:0.07142857;stroke-miterlimit:4;stroke-dasharray:none;stroke-opacity:1" />
    <path
       transform="scale(0.26458333)"
       id="path4627"
       d="m 11.068215,284.30416 -4.821429,-0.24988 v -28.97924 -28.97925 l 1.6071429,0.46201 c 3.5951891,1.03351 22.5771421,1.32234 29.5148271,0.44909 12.915721,-1.62571 25.50984,-6.25675 36.023979,-13.24654 6.131965,-4.07652 16.43438,-14.16426 20.977401,-20.54028 l 3.440064,-4.82805 2.61115,2.09049 c 4.99371,3.99796 38.68258,38.40397 38.68258,39.50602 0,1.33535 -9.96909,12.4203 -16.42857,18.26745 -20.02132,18.12338 -45.07591,29.48885 -75.000003,34.02214 -8.093545,1.2261 -25.226542,2.63842 -29.285714,2.41408 -1.375,-0.076 -4.669643,-0.25061 -7.321428,-0.38804 z"
       style="opacity:0.75666665;fill:#f89d42;fill-opacity:1;fill-rule:nonzero;stroke:none;stroke-width:0.07142857;stroke-miterlimit:4;stroke-dasharray:none;stroke-opacity:1" />
    <path
       transform="scale(0.26458333)"
       id="path4629"
       d="m 10.353929,284.30599 -4.107143,-0.25773 v -28.97623 -28.97624 l 1.6071429,0.4526 c 0.8839285,0.24893 6.4285711,0.64977 12.3214281,0.89075 20.567654,0.84108 38.106655,-3.61097 52.587065,-13.34855 5.828964,-3.91977 17.688386,-15.44776 21.837971,-21.22766 l 3.209807,-4.47091 2.61115,2.07568 c 4.49639,3.5743 38.68258,38.51009 38.68258,39.53076 0,0.53375 -2.6526,3.94408 -5.89466,7.57852 -25.39218,28.46535 -58.04699,43.2684 -102.67677,46.54536 -9.415158,0.69131 -11.749881,0.71256 -20.178571,0.18365 z"
       style="opacity:0.75666665;fill:#f89d42;fill-opacity:1;fill-rule:nonzero;stroke:none;stroke-width:0.07142857;stroke-miterlimit:4;stroke-dasharray:none;stroke-opacity:1" />
    <path
       transform="scale(0.26458333)"
       id="path4631"
       d="M 9.6396431,284.35955 6.246786,284.04128 v -28.96687 -28.96687 l 1.6071429,0.39453 c 0.8839285,0.21699 5.9464281,0.61134 11.2500001,0.87633 19.92281,0.99542 37.218951,-3.08517 51.923293,-12.24998 6.423243,-4.00343 18.168814,-15.05605 23.223014,-21.85291 l 3.600836,-4.8424 1.876428,1.34306 c 3.32543,2.38018 39.37643,39.20835 39.37643,40.22527 0,1.52004 -11.9968,14.61124 -18.50173,20.18954 -20.874321,17.90076 -47.34604,29.06887 -77.78583,32.81692 -9.296105,1.14464 -27.484354,1.88564 -33.1767269,1.35165 z"
       style="opacity:0.75666665;fill:#f89d42;fill-opacity:1;fill-rule:nonzero;stroke:none;stroke-width:0.07142857;stroke-miterlimit:4;stroke-dasharray:none;stroke-opacity:1" />
    <path
       transform="scale(0.26458333)"
       id="path4633"
       d="M 9.2825003,284.36263 6.246786,284.03741 v -28.93127 -28.93126 l 3.3928571,0.53523 c 5.3960779,0.85125 26.5243749,0.6055 31.5048779,-0.36644 13.403304,-2.61563 25.829101,-7.87435 34.745122,-14.70447 5.795757,-4.43985 14.468529,-13.22278 18.878879,-19.11868 l 3.066228,-4.09904 1.884586,1.35314 c 3.544024,2.54461 39.384594,39.19545 39.384594,40.27498 0,1.71391 -12.16807,14.80593 -19.43327,20.9089 -21.294102,17.88762 -48.706029,29.08619 -79.342768,32.41387 -8.069467,0.87648 -26.59237,1.46731 -31.0453917,0.99026 z"
       style="opacity:0.75666665;fill:#f89d42;fill-opacity:1;fill-rule:nonzero;stroke:none;stroke-width:0.07142857;stroke-miterlimit:4;stroke-dasharray:none;stroke-opacity:1" />
    <path
       transform="scale(0.26458333)"
       id="path4635"
       d="M 8.5682146,284.31712 6.246786,284.02904 v -28.88956 -28.88955 l 3.75,0.34293 c 15.537959,1.42094 27.362811,0.79037 38.590964,-2.0579 7.886197,-2.00051 18.12532,-6.59996 24.88947,-11.18043 5.426545,-3.67468 17.057773,-15.08296 21.258988,-20.85149 2.433571,-3.34144 3.227864,-3.99207 4.2186,-3.45559 2.249092,1.21786 40.149122,39.90386 40.149122,40.98172 0,1.57874 -10.71019,13.41004 -17.56185,19.40017 -23.547944,20.58703 -52.74553,31.8879 -89.581008,34.67216 -9.403777,0.71079 -18.711391,0.79659 -23.3928574,0.21562 z"
       style="opacity:0.75666665;fill:#f89d42;fill-opacity:1;fill-rule:nonzero;stroke:none;stroke-width:0.07142857;stroke-miterlimit:4;stroke-dasharray:none;stroke-opacity:1" />
    <path
       transform="scale(0.26458333)"
       id="path4637"
       d="M 8.2110717,284.32223 6.246786,284.02467 V 255.06243 226.1002 l 3.2248954,0.48361 c 5.9978936,0.89944 26.1554976,0.50862 32.5759446,-0.63159 20.135161,-3.57582 36.920624,-13.90408 50.756674,-31.23111 4.024822,-5.04032 5.252922,-6.15941 6.195472,-5.64553 2.289098,1.24801 40.104158,39.86033 40.104158,40.94969 0,1.60364 -10.11149,12.80714 -17.24076,19.10271 -23.461491,20.71791 -52.30265,31.98999 -89.47011,34.96787 -8.981133,0.71958 -20.231055,0.82489 -24.1819883,0.22638 z"
       style="opacity:0.75666665;fill:#f89d42;fill-opacity:1;fill-rule:nonzero;stroke:none;stroke-width:0.07142857;stroke-miterlimit:4;stroke-dasharray:none;stroke-opacity:1" />
    <path
       transform="scale(0.26458333)"
       id="path4639"
       d="m 7.8539289,284.38321 -1.6071429,-0.36302 -1.256e-4,-28.70032 -1.256e-4,-28.70032 17.3215542,-0.003 c 19.026766,-0.003 22.044385,-0.46533 34.529373,-5.28841 11.873881,-4.587 23.930131,-13.53547 32.792181,-24.33923 2.357143,-2.8736 4.987193,-6.06087 5.84455,-7.08282 l 1.558836,-1.8581 18.315901,18.21429 c 10.07375,10.01786 19.29951,19.44021 20.50168,20.93857 2.75516,3.43396 2.64268,3.66943 -6.32103,13.23245 -22.45564,23.957 -50.766244,37.72766 -87.730425,42.67327 -7.96813,1.06609 -32.240453,1.94619 -35.2052261,1.27651 z"
       style="opacity:0.75666665;fill:#f89d42;fill-opacity:1;fill-rule:nonzero;stroke:none;stroke-width:0.07142857;stroke-miterlimit:4;stroke-dasharray:none;stroke-opacity:1" />
    <path
       transform="scale(0.26458333)"
       id="path4641"
       d="m 7.496786,284.34146 c -1.1643141,-0.30427 -1.25,-2.29384 -1.25,-29.02428 v -28.69763 l 17.321429,-0.0404 c 16.375065,-0.0382 17.698785,-0.14247 24.228242,-1.90857 18.082342,-4.89092 31.458551,-13.70308 44.192858,-29.11397 3.250114,-3.93324 6.112764,-7.15134 6.36145,-7.15134 0.9941,0 40.753165,40.53717 40.753165,41.55072 0,1.48863 -7.85494,10.56127 -14.54239,16.79681 -23.76568,22.1597 -53.532982,34.31509 -91.454195,37.34507 -9.167005,0.73246 -23.2280686,0.8662 -25.610559,0.24359 z"
       style="opacity:0.75666665;fill:#f89d42;fill-opacity:1;fill-rule:nonzero;stroke:none;stroke-width:0.07142857;stroke-miterlimit:4;stroke-dasharray:none;stroke-opacity:1" />
  </g>
</svg>
