<?xml version="1.0" encoding="UTF-8" standalone="no"?>
<svg
   xmlns:dc="http://purl.org/dc/elements/1.1/"
   xmlns:cc="http://creativecommons.org/ns#"
   xmlns:rdf="http://www.w3.org/1999/02/22-rdf-syntax-ns#"
   xmlns:svg="http://www.w3.org/2000/svg"
   xmlns="http://www.w3.org/2000/svg"
   id="svg8"
   version="1.1"
   viewBox="0 0 106.15525 29.279529"
   height="29.27953mm"
   width="106.15525mm">
  <defs
     id="defs2">
    <clipPath
       id="clipPath840"
       clipPathUnits="userSpaceOnUse">
      <path
         id="path842"
         d="m 98.330505,108.63556 c -0.254512,-0.10881 -0.260704,0.0831 -0.47247,0.18899 -0.980318,0.49016 -0.491948,1.20065 -1.039435,1.74814 -0.130995,0.131 0.03318,0.97812 0.09449,1.03943 0.095,0.095 0.117795,0.30679 0.188988,0.37798 0.09381,0.0938 0.260654,0.21341 0.377976,0.33073 0.02362,0.0236 -0.02362,0.11812 0,0.14174 0.444009,0.44401 0.566965,1.59227 0.566965,2.4096 0,0.24728 0.133516,0.62244 -0.04725,0.8032 -0.118118,0.11812 0.118117,0.59059 0,0.7087 -0.0879,0.0879 -0.07451,0.29076 -0.141741,0.42523 l -1.291103,3.67175 c 1.130673,2.44788 3.368355,1.33525 6.063055,1.43089 0.18426,0.0614 0.42994,-0.0614 0.61421,0 0.58094,0.19365 1.24682,0.0873 1.84263,0.23623 0.27675,0.0692 0.62798,-0.0899 0.8977,0 0.51505,0.17169 1.07186,0.12933 1.60639,0.23624 0.2782,0.0556 0.63013,-0.0892 0.8977,0 0.47033,0.15678 2.80913,-0.37798 3.40178,-0.37798 1.71929,0 3.42659,0.14174 5.14993,0.14174 1.3683,0 2.79227,-0.0747 4.11049,0.18899 0.43066,0.0861 0.89467,-0.0126 1.32292,0.0945 0.2325,0.0581 0.56119,0 0.8032,0 0.53443,0 2.65574,-0.0566 3.07105,0.0472 0.53774,0.13443 2.61983,0.13643 3.16555,0 0.40816,-0.10204 0.92517,0.13258 1.32292,0 0.81254,-0.27085 1.85047,-0.004 2.59859,-0.37798 0.26783,-0.13391 0.82923,-0.0553 0.89769,-0.28348 l 0.14174,-0.47247 1.74815,0.70871 v -0.33073 c -0.38043,-0.76086 0.26659,-3.84048 0.56696,-4.44122 0.25165,-0.50329 0.31089,-3.42163 0,-3.73252 -0.0394,-0.0394 0.0394,-0.19686 0,-0.23623 -0.16595,-0.16595 -0.27385,-0.51009 -0.47247,-0.70871 -0.0977,-0.0977 -0.2521,-0.63008 -0.33073,-0.7087 -0.63081,-0.63081 -0.72155,-1.82544 -1.70089,-2.31511 -0.6812,-0.3406 -1.45702,-0.50874 -2.22061,-0.66146 -0.57762,-0.11552 -1.1713,-0.29593 -1.70089,-0.47247 -0.23591,-0.0786 -0.9307,-0.0401 -1.13393,-0.14174 -0.26385,-0.13192 -0.64269,-0.0142 -0.89769,-0.14174 -0.66422,-0.33211 -3.00644,-0.23623 -3.92151,-0.23623 h -3.16555 c -0.41545,0 -0.9159,0.0814 -1.32292,0 -1.22518,-0.24504 -2.57416,-0.0293 -3.77976,-0.33073 -0.3696,-0.0924 -0.80448,0.0628 -1.18117,0 -1.29606,-0.21601 -4.44062,-0.40175 -5.66965,-0.0945 -0.544,0.136 -1.15592,0.005 -1.70089,0.14174 -0.61162,0.15291 -1.38828,-0.19869 -1.98437,0 -0.67945,0.22649 -2.4278,-0.0381 -2.97657,0.23624 -0.18591,0.093 -0.54799,0.0141 -0.7087,0.0945 -0.19859,0.0993 -0.50303,-0.008 -0.70871,0.0945 -0.17886,0.0894 -0.47815,0.003 -0.66145,0.0945 -0.12507,0.0625 -0.33866,-0.0446 -0.47248,0 -0.563881,0.18796 -1.234878,0.0875 -1.748132,0.47247 z"
         style="fill:none;stroke:#000000;stroke-width:0.26458332px;stroke-linecap:butt;stroke-linejoin:miter;stroke-opacity:1" />
    </clipPath>
    <clipPath
       id="clipPath846"
       clipPathUnits="userSpaceOnUse">
      <rect
         y="108.45448"
         x="96.700829"
         height="13.599159"
         width="39.521786"
         id="rect848"
         style="opacity:1;fill:#000084;fill-opacity:1;fill-rule:nonzero;stroke:none;stroke-width:1.69003427;stroke-miterlimit:4;stroke-dasharray:none;stroke-opacity:1" />
    </clipPath>
    <clipPath
       id="clipPath852"
       clipPathUnits="userSpaceOnUse">
      <rect
         ry="0"
         y="109.12825"
         x="97.224586"
         height="12.22326"
         width="39.541351"
         id="rect854"
         style="opacity:1;fill:#000084;fill-opacity:1;fill-rule:nonzero;stroke:none;stroke-width:1.69003427;stroke-miterlimit:4;stroke-dasharray:none;stroke-opacity:1" />
    </clipPath>
    <clipPath
       id="clipPath852-5"
       clipPathUnits="userSpaceOnUse">
      <rect
         ry="0"
         y="109.12825"
         x="97.224586"
         height="12.22326"
         width="39.541351"
         id="rect854-7"
         style="opacity:1;fill:#000084;fill-opacity:1;fill-rule:nonzero;stroke:none;stroke-width:1.69003427;stroke-miterlimit:4;stroke-dasharray:none;stroke-opacity:1" />
    </clipPath>
    <clipPath
       id="clipPath852-5-7"
       clipPathUnits="userSpaceOnUse">
      <rect
         ry="0"
         y="109.12825"
         x="97.224586"
         height="12.22326"
         width="39.541351"
         id="rect854-7-7"
         style="opacity:1;fill:#000084;fill-opacity:1;fill-rule:nonzero;stroke:none;stroke-width:1.69003427;stroke-miterlimit:4;stroke-dasharray:none;stroke-opacity:1" />
    </clipPath>
    <clipPath
       id="clipPath13552"
       clipPathUnits="userSpaceOnUse">
      <path
         id="path13554"
         d="m 216.77335,90.737809 c -0.18223,0.1155 -0.32467,0.18139 -0.53454,0.23386 -0.43818,0.10954 -1.40531,-0.0323 -1.73725,0.13363 -0.16722,0.0836 -0.48992,-0.026 -0.66817,0.0334 -0.24055,0.0802 -0.56127,-0.0802 -0.80181,0 -0.38156,0.12719 -0.77821,0.10513 -1.10249,0.26727 -0.0534,0.0267 -0.147,-0.0267 -0.20045,0 -0.11407,0.057 -1.05166,0.30068 -1.20271,0.30068 -0.13878,0 -0.21348,0.14015 -0.33409,0.20045 -0.27855,0.13928 -0.80181,0.0196 -0.80181,0.43431 0,0.0204 -0.013,0.12062 0,0.13364 0.0923,0.0923 0.16574,0.29937 0.26727,0.4009 0.26411,0.26412 0.71011,0.53739 1.10249,0.66818 0.40774,0.13591 0.82574,0.1456 1.20271,0.33408 0.14399,0.072 0.35449,0.0269 0.50113,0.10023 0.0892,0.0446 0.23854,-0.0319 0.33409,0 0.29665,0.0989 0.65035,0.0874 0.96885,0.16704 0.15367,0.0384 0.35113,-0.05 0.50113,0 0.66307,0.22103 1.42069,0.22857 2.13815,0.46773 0.10029,0.0334 0.23122,-0.0257 0.33409,0 0.38763,0.0969 0.93635,0.11738 1.23612,0.26727 0.0995,0.0498 0.48179,0.0492 0.63477,0.10022 0.09,0.03 0.20848,-0.023 0.30068,0 0.3295,0.0824 0.92974,0.0974 1.20271,0.23386 0.1599,0.0799 0.43017,-0.0571 0.60136,0 0.33578,0.11193 0.7422,0.1284 1.10248,0.20045 0.1392,0.0278 0.29511,-0.0278 0.43431,0 0.2207,0.0441 2.66108,0.38929 2.6727,0.40091 0.1801,0.1801 0.9201,0.15079 1.26953,0.26727 0.86318,0.28772 1.6724,0.26727 2.57247,0.26727 0.0879,0 0.54142,0.0599 0.60136,0 0.16876,-0.16876 0.52054,-0.24033 0.8018,-0.33409 0.63554,-0.21184 1.24254,-0.59427 1.60362,-1.13589 0.36323,-0.54484 1.01034,-1.05183 1.30294,-1.63703 0.11902,-0.23805 0.41586,-0.36399 0.53454,-0.60136 0.17011,-0.34021 0.35649,-0.61276 0.53454,-0.96885 0.0813,-0.16263 0.0436,-0.44452 0.16704,-0.56795 0.0557,-0.0557 0.37591,-0.95202 0.30068,-1.10248 -0.2739,-0.54781 -2.58277,-0.16705 -3.17383,-0.16705 -0.13569,0 -0.30283,0.0674 -0.43431,0.10023 -0.14673,0.0367 -0.32098,-0.0367 -0.46772,0 -0.43071,0.10768 -1.07023,0.0173 -1.43658,0.20045 -0.17014,0.0851 -0.54701,-0.0543 -0.66817,0.0668 -0.0933,0.0933 -0.48078,-0.0603 -0.60135,0 -0.32585,0.16292 -1.33508,0.0887 -1.77066,0.23386 -0.25641,0.0855 -0.69666,0 -0.96886,0 -0.71223,0 -1.43227,-0.0345 -2.10474,0.13364 -0.17042,0.0426 -0.36341,-0.009 -0.53454,0.0334 -0.36055,0.0901 -0.85889,0 -1.23613,0 -0.99112,0 -1.98224,0 -2.97337,0 -0.48327,0 -1.12364,-0.0973 -1.46998,0.13363 z"
         style="display:inline;fill:none;stroke:#000000;stroke-width:0.26458332px;stroke-linecap:butt;stroke-linejoin:miter;stroke-opacity:1" />
    </clipPath>
    <clipPath
       id="clipPath13552-6"
       clipPathUnits="userSpaceOnUse">
      <path
         id="path13554-3"
         d="m 216.77335,90.737809 c -0.18223,0.1155 -0.32467,0.18139 -0.53454,0.23386 -0.43818,0.10954 -1.40531,-0.0323 -1.73725,0.13363 -0.16722,0.0836 -0.48992,-0.026 -0.66817,0.0334 -0.24055,0.0802 -0.56127,-0.0802 -0.80181,0 -0.38156,0.12719 -0.77821,0.10513 -1.10249,0.26727 -0.0534,0.0267 -0.147,-0.0267 -0.20045,0 -0.11407,0.057 -1.05166,0.30068 -1.20271,0.30068 -0.13878,0 -0.21348,0.14015 -0.33409,0.20045 -0.27855,0.13928 -0.80181,0.0196 -0.80181,0.43431 0,0.0204 -0.013,0.12062 0,0.13364 0.0923,0.0923 0.16574,0.29937 0.26727,0.4009 0.26411,0.26412 0.71011,0.53739 1.10249,0.66818 0.40774,0.13591 0.82574,0.1456 1.20271,0.33408 0.14399,0.072 0.35449,0.0269 0.50113,0.10023 0.0892,0.0446 0.23854,-0.0319 0.33409,0 0.29665,0.0989 0.65035,0.0874 0.96885,0.16704 0.15367,0.0384 0.35113,-0.05 0.50113,0 0.66307,0.22103 1.42069,0.22857 2.13815,0.46773 0.10029,0.0334 0.23122,-0.0257 0.33409,0 0.38763,0.0969 0.93635,0.11738 1.23612,0.26727 0.0995,0.0498 0.48179,0.0492 0.63477,0.10022 0.09,0.03 0.20848,-0.023 0.30068,0 0.3295,0.0824 0.92974,0.0974 1.20271,0.23386 0.1599,0.0799 0.43017,-0.0571 0.60136,0 0.33578,0.11193 0.7422,0.1284 1.10248,0.20045 0.1392,0.0278 0.29511,-0.0278 0.43431,0 0.2207,0.0441 2.66108,0.38929 2.6727,0.40091 0.1801,0.1801 0.9201,0.15079 1.26953,0.26727 0.86318,0.28772 1.6724,0.26727 2.57247,0.26727 0.0879,0 0.54142,0.0599 0.60136,0 0.16876,-0.16876 0.52054,-0.24033 0.8018,-0.33409 0.63554,-0.21184 1.24254,-0.59427 1.60362,-1.13589 0.36323,-0.54484 1.01034,-1.05183 1.30294,-1.63703 0.11902,-0.23805 0.41586,-0.36399 0.53454,-0.60136 0.17011,-0.34021 0.35649,-0.61276 0.53454,-0.96885 0.0813,-0.16263 0.0436,-0.44452 0.16704,-0.56795 0.0557,-0.0557 0.37591,-0.95202 0.30068,-1.10248 -0.2739,-0.54781 -2.58277,-0.16705 -3.17383,-0.16705 -0.13569,0 -0.30283,0.0674 -0.43431,0.10023 -0.14673,0.0367 -0.32098,-0.0367 -0.46772,0 -0.43071,0.10768 -1.07023,0.0173 -1.43658,0.20045 -0.17014,0.0851 -0.54701,-0.0543 -0.66817,0.0668 -0.0933,0.0933 -0.48078,-0.0603 -0.60135,0 -0.32585,0.16292 -1.33508,0.0887 -1.77066,0.23386 -0.25641,0.0855 -0.69666,0 -0.96886,0 -0.71223,0 -1.43227,-0.0345 -2.10474,0.13364 -0.17042,0.0426 -0.36341,-0.009 -0.53454,0.0334 -0.36055,0.0901 -0.85889,0 -1.23613,0 -0.99112,0 -1.98224,0 -2.97337,0 -0.48327,0 -1.12364,-0.0973 -1.46998,0.13363 z"
         style="display:inline;fill:none;stroke:#000000;stroke-width:0.26458332px;stroke-linecap:butt;stroke-linejoin:miter;stroke-opacity:1" />
    </clipPath>
  </defs>
  <metadata
     id="metadata5">
    <rdf:RDF>
      <cc:Work
         rdf:about="">
        <dc:format>image/svg+xml</dc:format>
        <dc:type
           rdf:resource="http://purl.org/dc/dcmitype/StillImage" />
        <dc:title></dc:title>
      </cc:Work>
    </rdf:RDF>
  </metadata>
  <g
     transform="translate(-0.97750812,-0.81462893)"
     style="display:inline"
     id="layer2">
    <path
       id="path13526"
       d="m 122.025,-25.585397 1.93264,-0.02443"
       style="fill:none;fill-opacity:1;stroke:none;stroke-width:0.37343296px;stroke-linecap:butt;stroke-linejoin:miter;stroke-opacity:1" />
    <text
       id="text13587"
       y="29.433872"
       x="0.27595493"
       style="font-style:normal;font-weight:normal;font-size:42.25826263px;line-height:1.25;font-family:sans-serif;letter-spacing:0px;word-spacing:0px;fill:#003876;fill-opacity:1;stroke:none;stroke-width:1.05645657"
       xml:space="preserve"><tspan
         style="font-style:normal;font-variant:normal;font-weight:normal;font-stretch:normal;font-size:42.25826263px;font-family:'Times New Roman';-inkscape-font-specification:'Times New Roman, Normal';font-variant-ligatures:normal;font-variant-caps:normal;font-variant-numeric:normal;font-feature-settings:normal;text-align:start;writing-mode:lr-tb;text-anchor:start;fill:#003876;fill-opacity:1;stroke-width:1.05645657"
         y="29.433872"
         x="0.27595493"
         id="tspan13585">MAU</tspan></text>
    <path
       clip-path="url(#clipPath13552-6)"
       id="path13509-4"
       d="m 219.32223,94.054579 4.97907,0.61233 4.97908,0.61234 2.09193,-2.1443 2.09195,-2.14429 -6.31138,0.41578 c -3.47126,0.22868 -7.76914,0.35106 -7.76914,0.35106 l -2.1962,0.02777 h -3.69317 c -4.34933,0 -4.31125,1.00252 0.0568,1.49486 l 3.68506,0.48513 z"
       style="display:inline;fill:#ffd51d;fill-opacity:1;stroke-width:0.66435587"
       transform="translate(-126.3315,-76.787613)" />
  </g>
</svg>
