<?xml version="1.0" encoding="UTF-8" standalone="no"?>
<svg
   xmlns:dc="http://purl.org/dc/elements/1.1/"
   xmlns:cc="http://creativecommons.org/ns#"
   xmlns:rdf="http://www.w3.org/1999/02/22-rdf-syntax-ns#"
   xmlns:svg="http://www.w3.org/2000/svg"
   xmlns="http://www.w3.org/2000/svg"
   xmlns:xlink="http://www.w3.org/1999/xlink"
   id="svg8"
   version="1.1"
   viewBox="0 0 193.08672 138.25008"
   height="138.25008mm"
   width="193.08672mm">
  <defs
     id="defs2">
    <linearGradient
       id="linearGradient873">
      <stop
         id="stop869"
         offset="0"
         style="stop-color:#00afef;stop-opacity:1" />
      <stop
         id="stop871"
         offset="1"
         style="stop-color:#86d6f7;stop-opacity:1" />
    </linearGradient>
    <linearGradient
       gradientTransform="matrix(0.26458333,0,0,0.26458333,7.7485056,64.501564)"
       gradientUnits="userSpaceOnUse"
       y2="43.341778"
       x2="13.873495"
       y1="323.34177"
       x1="13.873495"
       id="linearGradient875"
       xlink:href="#linearGradient873" />
  </defs>
  <metadata
     id="metadata5">
    <rdf:RDF>
      <cc:Work
         rdf:about="">
        <dc:format>image/svg+xml</dc:format>
        <dc:type
           rdf:resource="http://purl.org/dc/dcmitype/StillImage" />
        <dc:title></dc:title>
      </cc:Work>
    </rdf:RDF>
  </metadata>
  <g
     style="display:inline"
     transform="translate(-7.7485056,-64.501564)"
     id="layer1">
    <path
       id="path879"
       d="m 120.22483,105.51433 1.69607,-13.212709 5.99428,1.529326 14.24893,16.459893 4.03616,8.07292 z"
       style="opacity:1;fill:#005b7f;fill-opacity:1;fill-rule:nonzero;stroke:none;stroke-width:3.77976179;stroke-miterlimit:4;stroke-dasharray:none;stroke-opacity:1" />
    <path
       id="path877"
       d="m 121.16976,113.13852 v -7.18058 l 11.34722,5.33795 12.90636,5.14896 -11.4417,3.57251 c -5.25351,1.28924 -12.85439,3.1555 -12.90637,3.16555 -0.052,0.0101 0.0945,-6.09507 0.0945,-10.04439 z"
       style="opacity:1;fill:#00aced;fill-opacity:1;fill-rule:nonzero;stroke:none;stroke-width:3.77976179;stroke-miterlimit:4;stroke-dasharray:none;stroke-opacity:1" />
    <path
       id="path893"
       d="m 134.34428,143.06878 c -7.09693,-5.69225 -11.32309,-9.01052 -11.61199,-10.55054 -0.12639,-0.67366 1.0821,-5.25891 1.0821,-5.25891 0,0 8.05925,4.28407 11.41908,7.59376 5.79476,5.70829 16.49515,21.91485 16.49515,21.91485 0,0 -14.38245,-11.29147 -17.38429,-13.69916 z"
       style="opacity:1;fill:#005b7f;fill-opacity:1;fill-rule:nonzero;stroke:none;stroke-width:3.77976179;stroke-miterlimit:4;stroke-dasharray:none;stroke-opacity:1" />
    <path
       transform="matrix(0.26458333,0,0,0.26458333,7.7485056,64.501564)"
       id="path950"
       d="M 18.921245,437.12198 C 14.862927,408.28355 11.219217,375.82507 5.9089123,321.20697 5.1943242,313.85722 4.8140888,305.48247 4.670597,293.93285 4.5567048,284.76572 3.8300202,248.74702 3.9715502,249.4415 c 1.3044,6.4006 16.1293178,59.19437 17.9438758,79.57146 4.461439,50.101 6.202827,144.08943 5.936872,145.86734 -0.09632,0.64392 -7.8951,-30.39683 -8.931053,-37.75832 z"
       style="opacity:1;fill:#055a7d;fill-opacity:1;fill-rule:nonzero;stroke:none;stroke-width:5.05076265;stroke-miterlimit:4;stroke-dasharray:none;stroke-opacity:1" />
    <path
       id="path845"
       d="m 81.061301,116.75822 0.457953,-46.98191 15.732236,8.105942 0.424283,51.154138 z"
       style="opacity:1;fill:#005b7f;fill-opacity:1;fill-rule:nonzero;stroke:none;stroke-width:2.67269516;stroke-miterlimit:4;stroke-dasharray:none;stroke-opacity:1" />
    <path
       id="path847"
       d="m 42.311627,185.7544 -6.916328,-25.92387 8.075949,-13.74814 c 4.300826,-8.39831 16.438427,-26.91047 16.945146,-26.91047 l 11.95448,15.3317 z"
       style="opacity:1;fill:#0083b4;fill-opacity:1;fill-rule:nonzero;stroke:none;stroke-width:2.67269516;stroke-miterlimit:4;stroke-dasharray:none;stroke-opacity:1" />
    <path
       id="path857"
       d="m 10.746449,144.50753 -1.7479833,-11.301 -0.2003452,-2.7061 c 0,0 9.6602065,-1.95192 14.3531135,-3.09487 4.225844,-1.03567 7.722324,-1.88302 7.769958,-1.88302 0.390152,0 1.459382,1.64529 2.51852,3.8754 1.35048,2.84357 4.56726,11.73371 4.56726,11.73371 l -26.793664,6.376 c 0,0 -0.132269,-0.63609 -0.466859,-3.00012 z"
       style="opacity:1;fill:#00aaea;fill-opacity:1;fill-rule:nonzero;stroke:none;stroke-width:2.67269516;stroke-miterlimit:4;stroke-dasharray:none;stroke-opacity:1" />
    <path
       id="path859"
       d="m 69.354646,131.6087 c -0.30893,-0.48093 -2.2192,-2.97916 -4.245046,-5.55163 -4.300574,-5.46097 -5.060587,-6.55158 -4.827939,-6.92801 0.281612,-0.45566 5.649073,-0.8759 13.073043,-2.63424 6.87974,-1.62944 7.574756,-1.46005 8.202474,-0.97913 0.351134,0.26902 1.334308,1.36121 4.032717,3.69749 2.698409,2.33629 5.90378,5.00252 7.123049,5.92497 1.704485,1.28953 6.310991,3.05695 5.942236,3.16753 -0.263781,0.0791 -9.522165,0.61854 -15.843087,2.02786 -6.320925,1.40932 -11.933585,2.85371 -12.227582,2.92393 -0.387128,0.0925 -0.823073,-1.0155 -1.229865,-1.64877 z"
       style="opacity:1;fill:#00aaea;fill-opacity:1;fill-rule:nonzero;stroke:none;stroke-width:2.67269516;stroke-miterlimit:4;stroke-dasharray:none;stroke-opacity:1" />
    <path
       id="path867"
       d="m 26.917822,201.10835 c -1.60914,-0.43147 -3.827485,-1.23007 -4.929656,-1.77466 -4.57791,-2.26199 -6.950111,-5.8095 -6.958711,-10.97983 l -2.697667,-31.86865 c -0.451483,-4.46486 -1.182137,-8.87545 -1.060649,-8.97844 0.173847,-0.14737 25.616648,-6.22929 26.56183,-6.34762 0.384852,-0.0482 0.159244,5.32104 0.484528,8.63629 0.834516,12.02152 1.617422,15.92958 6.78636,26.78906 0.288321,0.46651 0.648821,0.17811 1.806482,-1.44518 5.213599,-7.3106 22.194083,-37.86793 22.780778,-40.99527 0.112197,-0.59807 0.383633,-1.02932 0.744262,-1.18247 0.312211,-0.13259 6.026862,-1.4563 12.699222,-2.94157 8.476205,-1.88681 12.395806,-2.65092 13.008547,-2.53597 0.578315,0.10849 0.949621,0.048 1.090273,-0.17776 0.49161,-0.78895 0.535589,-3.89275 0.209352,-14.77485 -0.189497,-6.32092 -0.430977,-16.738672 -0.536623,-23.150554 l -0.192082,-11.657969 7.189702,-1.752183 c 14.23492,-3.469159 23.55431,-5.005166 30.30687,-4.995131 4.59927,0.0068 6.20515,0.495006 9.35607,2.844166 4.37839,3.264286 8.57414,6.969367 16.34549,17.263295 6.15582,8.154004 8.46348,11.408536 9.61116,13.554746 0.53329,0.99729 1.6666,2.79459 2.51846,3.99399 1.86742,2.62928 3.65171,6.38578 3.45083,6.58665 -0.0817,0.0817 -3.70808,1.36408 -8.86705,2.67647 -12.08006,3.07305 -11.98493,1.65038 -11.09469,3.51591 1.289,2.70114 10.64517,13.99725 14.9791,18.1167 1.77803,1.69004 2.01185,0.15052 3.38463,0.15052 1.0521,0 1.70791,-1.77204 2.04893,-3.29712 0.30096,-1.34594 -0.2453,-1.13165 -0.0153,-7.96316 0.36346,-10.79392 0.75026,-21.17733 0.95035,-21.7036 0.21995,-0.57851 3.55823,0.97615 16.80109,-2.21681 1.61698,-0.38987 3.48118,-0.9137 4.14268,-1.16408 l 0.70662,-0.10088 0.43279,3.40327 c -0.0959,5.69867 -1.37185,28.13963 -1.82827,32.1558 -0.72077,6.34234 -1.80702,9.41798 -4.45984,12.62769 -2.56375,3.10195 -7.40791,7.06061 -11.31081,9.24324 -5.27027,2.9473 -11.85968,4.0514 -16.73606,2.80423 -3.77349,-0.9651 -12.86165,-6.02087 -14.39177,-8.00618 -3.01052,-3.90613 -8.87535,-10.41379 -15.83725,-17.57315 -4.60102,-4.73151 -9.05497,-8.65151 -9.82996,-8.65151 -0.38171,0 -0.49705,0.31187 -0.61775,1.67043 -0.38281,4.30858 -0.47841,8.10808 -0.67657,26.88873 -0.16101,15.25986 -0.29076,20.18852 -0.53544,20.33975 -0.58189,0.35963 -25.035828,6.88822 -25.035828,6.88822 L 96.225765,140.0602 c 0,0 -20.183424,30.68226 -32.311598,47.53723 -6.900728,7.21828 -13.707229,11.21069 -22.884513,13.42309 -3.410696,0.82223 -4.151744,0.91058 -7.485816,0.89245 -3.211196,-0.0175 -4.087168,-0.12384 -6.626096,-0.80462 z M 133.64477,119.0371 c 5.91342,-1.43938 10.31137,-2.63835 10.38552,-2.83131 0.23889,-0.62165 -0.17383,-1.55442 -1.69088,-3.82153 -1.73143,-2.58746 -8.63543,-11.2708 -11.76199,-14.793346 -2.73245,-3.078525 -3.40894,-3.454713 -5.83756,-3.246208 -1.02038,0.0876 -1.88574,0.189783 -1.92303,0.227068 -0.20019,0.2002 -0.63007,13.870256 -0.63082,20.059976 l -7.9e-4,7.17843 0.60136,-0.13823 c 0.33074,-0.076 5.21696,-1.26171 10.85826,-2.63485 z"
       style="opacity:1;fill:url(#linearGradient875);fill-opacity:1;fill-rule:nonzero;stroke:none;stroke-width:2.67269516;stroke-miterlimit:4;stroke-dasharray:none;stroke-opacity:1" />
    <path
       id="path881"
       d="m 172.45859,141.21451 c -2.53449,-2.00339 -6.60138,-6.45678 -11.6176,-12.72167 -5.72714,-7.15277 -6.35858,-8.02563 -5.97658,-8.26172 0.18087,-0.11179 4.82432,-1.32475 10.31878,-2.69548 5.49446,-1.37073 10.3127,-2.58967 10.7072,-2.70877 0.69648,-0.21025 0.7096,0.0779 0.45263,9.93752 -0.32978,12.65347 -0.84094,17.90256 -1.74337,17.90256 -0.16698,0 -1.13046,-0.6536 -2.14106,-1.45244 z"
       style="opacity:1;fill:#005e82;fill-opacity:1;fill-rule:nonzero;stroke:none;stroke-width:3.77976179;stroke-miterlimit:4;stroke-dasharray:none;stroke-opacity:1" />
    <path
       id="path883"
       d="m 173.14365,110.46454 c -1.17055,-1.55523 -11.27176,-16.684841 -11.27176,-16.826471 0,-0.100341 5.56115,-0.03601 7.40916,1.508906 4.14018,3.461157 6.69638,10.325385 7.28805,10.845025 0.8119,0.71306 0.27768,11.12864 -0.18578,11.95678 -0.29619,0.52926 -1.46609,-5.12784 -3.23967,-7.48424 z"
       style="opacity:1;fill:#005e82;fill-opacity:1;fill-rule:nonzero;stroke:none;stroke-width:3.77976179;stroke-miterlimit:4;stroke-dasharray:none;stroke-opacity:1" />
    <path
       id="path885"
       d="m 169.12453,104.58197 c 0,0 -1.53759,-2.27124 -4.66128,-6.598231 -1.40288,-1.943294 -2.65058,-4.374628 -2.65058,-4.374628 0,0 2.64537,-0.06835 3.91104,-0.07279 2.14408,-0.0075 7.41975,1.360758 20.22172,5.244621 10.40559,3.156848 13.34243,4.356938 12.28423,4.765198 -1.49817,0.57801 -20.1549,4.06605 -20.88319,4.03461 -0.31183,-0.0135 -8.22194,-2.99878 -8.22194,-2.99878 z"
       style="opacity:1;fill:#00aaea;fill-opacity:1;fill-rule:nonzero;stroke:none;stroke-width:3.77976179;stroke-miterlimit:4;stroke-dasharray:none;stroke-opacity:1" />
    <path
       id="path889"
       d="m 81.51814,69.778385 27.12441,-3.914171 c 0,0 3.40403,-0.01503 3.80859,0.162371 4.42891,1.110892 21.21595,3.939752 25.87805,5.219059 l -41.487887,6.474598 z"
       style="opacity:1;fill:#00aced;fill-opacity:1;fill-rule:nonzero;stroke:none;stroke-width:1.33634758;stroke-miterlimit:4;stroke-dasharray:none;stroke-opacity:1" />
    <path
       id="path891"
       d="m 81.529762,161.9721 14.772406,-22.02026 1.439393,44.90319 z"
       style="opacity:1;fill:#005b7f;fill-opacity:1;fill-rule:nonzero;stroke:none;stroke-width:3.77976179;stroke-miterlimit:4;stroke-dasharray:none;stroke-opacity:1" />
  </g>
</svg>
